<?xml version="1.0" encoding="UTF-8"?>
<!-- (c) Carrd Inc. All rights reserved. All logos and trademarks are property of their respective owners. -->
<svg xmlns="http://www.w3.org/2000/svg" version="1.1" xmlns:xlink="http://www.w3.org/1999/xlink" viewBox="0 0 40 40" display="none" width="0" height="0">
	<symbol id="arrow-left" viewBox="0 0 40 40"><path d="M19.5,7l2.3,2.3c.4.4.4,1,0,1.4l-6.7,6.7h18.4c.5,0,1,.4,1,1v3.2c0,.5-.4,1-1,1H15.1s6.8,6.8,6.8,6.8c.4.4.4,1,0,1.4l-2.3,2.3c-.4.4-1,.4-1.4,0l-12.3-12.3c-.4-.4-.4-1,0-1.4l12.3-12.3c.4-.4,1-.4,1.4,0Z" /></symbol>
	<symbol id="message" viewBox="0 0 40 40"><path d="M33.1,7.2H7.6c-3.1,0-4.6,1.3-4.6,3.9v15.5c0,3.1,1.5,4.6,4.6,4.6h4.4v5.4c0,.8,0,1.4.4,1.9.3.2.6.3.8.3.4,0,.7-.2,1-.7l5.4-7h12.6c3.1,0,4.6-1.5,4.6-4.6v-15.5c0-2.6-1.3-3.9-3.9-3.9h0Z" /></symbol>
	<symbol id="art" viewBox="0 0 40 40"><path d="M37.4,6.8l-13.8,16.7c-1.3,1.2-2.8,2.2-4.2,3.3h-.1s-4.9-4.7-4.9-4.7c0,0,0,0,0-.1,0-.1.9-1.2,1.1-1.4.7-1,1.3-2.1,2.2-2.9,2-1.9,4.4-3.8,6.5-5.6,3.4-3,6.7-6,10.2-8.8.3-.1.6-.3.9-.3,2.3-.3,3.6,2.2,2.2,4ZM17.9,29c.4,5.7-6.3,8.5-11.1,8.2-1.3,0-5.1-1-5.7-2.3-.4-.8.7-1,1.2-1.3,4-2.5,3.4-9.6,8.9-10.1,1.1,0,2,0,2.8.7.9.8,1.7,1.7,2.6,2.5.8.8,1.3.9,1.4,2.2Z" /></symbol>
	<symbol id="music" viewBox="0 0 40 40"><path d="M30.4,22.9v-14.8l-15.6,4v20.3c-.3,4.3-5,7.1-8.9,5.2-3.2-1.5-3.8-5.4-1.6-8.1,2-2.3,5.2-3,8-1.7V7.7c0-.4.4-.9.7-1L31.5,1.8c.7,0,1.2.2,1.4.9,0,8.4.1,16.9,0,25.3-.6,3.8-4.9,6.2-8.5,4.8-3.2-1.3-4.4-4.9-2.4-7.7,1.8-2.7,5.6-3.6,8.5-2.1Z" /></symbol>
	<symbol id="youtube-alt" viewBox="0 0 40 40"><path d="M37.6,27.1c0,0-0.3,2.4-1.4,3.5c-1.4,1.4-2.9,1.4-3.6,1.5c-5,0.4-12.4,0.4-12.4,0.4s-9.2-0.1-12.1-0.4 c-0.8-0.1-2.6-0.1-3.9-1.5c-1.1-1.1-1.4-3.5-1.4-3.5s-0.4-2.9-0.4-5.7v-2.7c0-2.9,0.4-5.7,0.4-5.7s0.3-2.4,1.4-3.5 C5.5,8,7,8,7.7,7.9c5-0.4,12.4-0.4,12.4-0.4h0c0,0,7.5,0,12.4,0.4C33.3,8,34.8,8,36.2,9.4c1.1,1.1,1.4,3.5,1.4,3.5s0.4,2.9,0.4,5.7 v2.7C37.9,24.2,37.6,27.1,37.6,27.1z M16.5,14.6l0,9.9l9.6-5L16.5,14.6z" /></symbol>
	<symbol id="apparel" viewBox="0 0 40 40"><path d="M35.7,16l-4.8,0v18.6c0,1.1-0.6,1.6-1.6,1.6H20h0h0h-9.3c-1.1,0-1.6-0.6-1.6-1.6V16l-4.8,0L1,8.4l12.7-4.1 c0.1,0,0.2,0,0.2,0c0.5,0,0.7,0.4,0.8,0.8c0,0,0,0,0.1,0.1C15.3,6.9,16.6,9,19.9,9c0,0,0.1,0,0.1,0c0,0,0.1,0,0.1,0 c3.3,0,4.6-2.1,5.1-3.8c0,0,0.1-0.1,0.1-0.1c0.1-0.4,0.4-0.8,0.8-0.8c0,0,0.1,0,0.2,0L39,8.4L35.7,16z"/></symbol>
	<symbol id="soundcloud" viewBox="0 0 40 40"><path d="M13.8,27.4l0.3-4.2L13.8,14c0-0.1-0.1-0.2-0.1-0.3c-0.1-0.1-0.2-0.1-0.3-0.1c-0.1,0-0.2,0-0.3,0.1C13.1,13.8,13,13.9,13,14 l-0.2,9.2l0.2,4.2c0,0.1,0.1,0.2,0.1,0.3c0.1,0.1,0.2,0.1,0.3,0.1C13.7,27.8,13.8,27.7,13.8,27.4z M18.8,26.9l0.2-3.7l-0.2-10.3 c0-0.2-0.1-0.3-0.2-0.4c-0.1-0.1-0.2-0.1-0.3-0.1s-0.2,0-0.3,0.1c-0.1,0.1-0.2,0.2-0.2,0.4l0,0.1l-0.2,10.1c0,0,0.1,1.4,0.2,4.1v0 c0,0.1,0,0.2,0.1,0.3c0.1,0.1,0.2,0.2,0.4,0.2c0.1,0,0.2-0.1,0.3-0.2c0.1-0.1,0.2-0.2,0.2-0.4L18.8,26.9z M1.2,20.9l0.3,2.2 l-0.3,2.2c0,0.1-0.1,0.2-0.2,0.2c-0.1,0-0.1-0.1-0.2-0.2l-0.3-2.2l0.3-2.2c0-0.1,0.1-0.2,0.2-0.2S1.2,20.8,1.2,20.9z M2.7,19.5 l0.4,3.6l-0.4,3.6c0,0.1-0.1,0.2-0.2,0.2c-0.1,0-0.2-0.1-0.2-0.2L2,23.2l0.4-3.6c0-0.1,0.1-0.2,0.2-0.2C2.6,19.4,2.7,19.4,2.7,19.5z M4.2,18.9l0.4,4.3l-0.4,4.2c0,0.1-0.1,0.2-0.2,0.2c-0.1,0-0.2-0.1-0.2-0.2l-0.4-4.2l0.4-4.3c0-0.1,0.1-0.2,0.2-0.2 C4.2,18.7,4.2,18.7,4.2,18.9z M5.8,18.8l0.4,4.4l-0.4,4.3c0,0.2-0.1,0.2-0.2,0.2c-0.1,0-0.2-0.1-0.2-0.2L5,23.2l0.4-4.4 c0-0.2,0.1-0.2,0.2-0.2C5.7,18.5,5.8,18.6,5.8,18.8z M7.4,19.1l0.4,4.1l-0.4,4.3c0,0.2-0.1,0.3-0.3,0.3c-0.1,0-0.1,0-0.2-0.1 c-0.1-0.1-0.1-0.1-0.1-0.2l-0.3-4.3l0.3-4.1c0-0.1,0-0.1,0.1-0.2C7,18.8,7,18.8,7.1,18.8C7.3,18.8,7.4,18.9,7.4,19.1L7.4,19.1z M9,16.5l0.4,6.7L9,27.5c0,0.1,0,0.2-0.1,0.2c-0.1,0.1-0.1,0.1-0.2,0.1c-0.2,0-0.3-0.1-0.3-0.3l-0.3-4.3l0.3-6.7 c0-0.2,0.1-0.3,0.3-0.3c0.1,0,0.1,0,0.2,0.1S9,16.4,9,16.5z M10.5,15l0.3,8.2l-0.3,4.3c0,0.1,0,0.2-0.1,0.2 c-0.1,0.1-0.1,0.1-0.2,0.1c-0.2,0-0.3-0.1-0.3-0.3l-0.3-4.3L9.9,15c0-0.2,0.1-0.3,0.3-0.3c0.1,0,0.2,0,0.2,0.1 C10.5,14.8,10.5,14.9,10.5,15z M12.2,14.3l0.3,8.9l-0.3,4.2c0,0.2-0.1,0.4-0.4,0.4c-0.2,0-0.3-0.1-0.4-0.4l-0.3-4.2l0.3-8.9 c0-0.1,0-0.2,0.1-0.3c0.1-0.1,0.2-0.1,0.2-0.1c0.1,0,0.2,0,0.3,0.1C12.1,14.1,12.2,14.2,12.2,14.3z M18.8,27.3L18.8,27.3L18.8,27.3z M15.4,14.2l0.3,8.9l-0.3,4.2c0,0.1,0,0.2-0.1,0.3c-0.1,0.1-0.2,0.1-0.3,0.1c-0.1,0-0.2,0-0.3-0.1s-0.1-0.2-0.1-0.3l-0.2-4.2 l0.2-8.9c0-0.1,0-0.2,0.1-0.3c0.1-0.1,0.2-0.1,0.3-0.1c0.1,0,0.2,0,0.3,0.1C15.4,14,15.4,14.1,15.4,14.2L15.4,14.2z M17.1,14.6 l0.2,8.6l-0.2,4.1c0,0.1,0,0.2-0.1,0.3c-0.1,0.1-0.2,0.1-0.3,0.1c-0.1,0-0.2,0-0.3-0.1c-0.1-0.1-0.1-0.2-0.2-0.3L16,23.2l0.2-8.6 c0-0.1,0.1-0.3,0.2-0.4c0.1-0.1,0.2-0.1,0.3-0.1c0.1,0,0.2,0,0.3,0.1C17.1,14.3,17.1,14.4,17.1,14.6z M20.7,23.2l-0.2,4 c0,0.2-0.1,0.3-0.2,0.4c-0.1,0.1-0.2,0.2-0.4,0.2c-0.1,0-0.3-0.1-0.4-0.2c-0.1-0.1-0.2-0.2-0.2-0.4l-0.1-2l-0.1-2L19.4,12V12 c0-0.2,0.1-0.3,0.2-0.4c0.1-0.1,0.2-0.1,0.3-0.1c0.1,0,0.2,0,0.3,0.1c0.2,0.1,0.2,0.2,0.3,0.5L20.7,23.2z M39.4,22.9 c0,1.4-0.5,2.5-1.4,3.5c-0.9,1-2,1.4-3.4,1.4H21.4c-0.1,0-0.3-0.1-0.4-0.2c-0.1-0.1-0.2-0.2-0.2-0.4V11.5c0-0.3,0.2-0.5,0.5-0.6 c1-0.4,2-0.6,3-0.6c2.2,0,4.1,0.8,5.7,2.3c1.6,1.5,2.5,3.4,2.7,5.7c0.6-0.3,1.2-0.4,1.8-0.4c1.3,0,2.4,0.5,3.4,1.5 C38.9,20.3,39.4,21.5,39.4,22.9L39.4,22.9z"/></symbol>
	<symbol id="tiktok" viewBox="0 0 40 40"><path d="M36.1,11.7v5c-3.3,0-6.3-1-8.8-2.8v12.9c0,6.5-5.2,11.7-11.7,11.7c-2.4,0-4.6-0.7-6.5-2c0,0,0,0,0,0 c-3.1-2.1-5.2-5.7-5.2-9.7c0-6.5,5.2-11.7,11.7-11.7c0.5,0,1.1,0,1.6,0.1v1.4c0,0,0,0,0,0v5c-0.5-0.2-1.1-0.3-1.6-0.3 c-2.9,0-5.3,2.4-5.3,5.4c0,2.1,1.2,3.9,2.9,4.8c0.7,0.4,1.5,0.6,2.4,0.6c2.9,0,5.3-2.4,5.3-5.3V1.5h6.3v0.8c0,0.2,0.1,0.5,0.1,0.7 c0.4,2.5,1.9,4.7,4,6c0,0,0.1,0.1,0.1,0.1c0,0-0.1-0.1-0.1-0.1c1.4,0.9,3,1.3,4.7,1.3V11.7"/></symbol>
	<symbol id="instagram" viewBox="0 0 40 40"><path d="M20,7c4.2,0,4.7,0,6.3,0.1c1.5,0.1,2.3,0.3,3,0.5C30,8,30.5,8.3,31.1,8.9c0.5,0.5,0.9,1.1,1.2,1.8c0.2,0.5,0.5,1.4,0.5,3 C33,15.3,33,15.8,33,20s0,4.7-0.1,6.3c-0.1,1.5-0.3,2.3-0.5,3c-0.3,0.7-0.6,1.2-1.2,1.8c-0.5,0.5-1.1,0.9-1.8,1.2 c-0.5,0.2-1.4,0.5-3,0.5C24.7,33,24.2,33,20,33s-4.7,0-6.3-0.1c-1.5-0.1-2.3-0.3-3-0.5C10,32,9.5,31.7,8.9,31.1 C8.4,30.6,8,30,7.7,29.3c-0.2-0.5-0.5-1.4-0.5-3C7,24.7,7,24.2,7,20s0-4.7,0.1-6.3c0.1-1.5,0.3-2.3,0.5-3C8,10,8.3,9.5,8.9,8.9 C9.4,8.4,10,8,10.7,7.7c0.5-0.2,1.4-0.5,3-0.5C15.3,7.1,15.8,7,20,7z M20,4.3c-4.3,0-4.8,0-6.5,0.1c-1.6,0-2.8,0.3-3.8,0.7 C8.7,5.5,7.8,6,6.9,6.9C6,7.8,5.5,8.7,5.1,9.7c-0.4,1-0.6,2.1-0.7,3.8c-0.1,1.7-0.1,2.2-0.1,6.5s0,4.8,0.1,6.5 c0,1.6,0.3,2.8,0.7,3.8c0.4,1,0.9,1.9,1.8,2.8c0.9,0.9,1.7,1.4,2.8,1.8c1,0.4,2.1,0.6,3.8,0.7c1.6,0.1,2.2,0.1,6.5,0.1 s4.8,0,6.5-0.1c1.6-0.1,2.9-0.3,3.8-0.7c1-0.4,1.9-0.9,2.8-1.8c0.9-0.9,1.4-1.7,1.8-2.8c0.4-1,0.6-2.1,0.7-3.8 c0.1-1.6,0.1-2.2,0.1-6.5s0-4.8-0.1-6.5c-0.1-1.6-0.3-2.9-0.7-3.8c-0.4-1-0.9-1.9-1.8-2.8c-0.9-0.9-1.7-1.4-2.8-1.8 c-1-0.4-2.1-0.6-3.8-0.7C24.8,4.3,24.3,4.3,20,4.3L20,4.3L20,4.3z"/><path d="M20,11.9c-4.5,0-8.1,3.7-8.1,8.1s3.7,8.1,8.1,8.1s8.1-3.7,8.1-8.1S24.5,11.9,20,11.9z M20,25.2c-2.9,0-5.2-2.3-5.2-5.2 s2.3-5.2,5.2-5.2s5.2,2.3,5.2,5.2S22.9,25.2,20,25.2z"/><path d="M30.6,11.6c0,1-0.8,1.9-1.9,1.9c-1,0-1.9-0.8-1.9-1.9s0.8-1.9,1.9-1.9C29.8,9.7,30.6,10.5,30.6,11.6z"/></symbol>
	<symbol id="discord" viewBox="0 0 40 40"><path d="M33.2,8.3c-2.5-1.1-5.1-1.9-7.9-2.4c-0.3,0.6-0.7,1.4-1,2c-2.9-0.4-5.8-0.4-8.7,0c-0.3-0.6-0.7-1.4-1-2 c-2.8,0.5-5.4,1.3-7.9,2.4c-5,7.2-6.3,14.2-5.6,21.1c3.3,2.3,6.5,3.8,9.6,4.7c0.8-1,1.5-2.1,2.1-3.3c-1.1-0.4-2.2-0.9-3.2-1.5 c0.3-0.2,0.5-0.4,0.8-0.6c6.3,2.8,13,2.8,19.2,0c0.3,0.2,0.5,0.4,0.8,0.6c-1,0.6-2.1,1.1-3.2,1.5c0.6,1.1,1.3,2.2,2.1,3.3 c3.1-0.9,6.3-2.4,9.6-4.7C39.7,21.4,37.5,14.4,33.2,8.3z M13.7,25.1c-1.9,0-3.4-1.7-3.4-3.7s1.5-3.7,3.4-3.7c1.9,0,3.5,1.7,3.4,3.7 C17.1,23.4,15.6,25.1,13.7,25.1z M26.3,25.1c-1.9,0-3.4-1.7-3.4-3.7s1.5-3.7,3.4-3.7c1.9,0,3.5,1.7,3.4,3.7 C29.7,23.4,28.2,25.1,26.3,25.1z"/></symbol>
	<symbol id="folder" viewBox="0 0 40 40"><path d="M5,6.7c3.3,0,6.6,0,9.9,0c0,0,0,0,0.1,0c1.3,0.3,1.9,1.1,1.9,2.4c0,0.8,0,1.5,0,2.3c0,0.1,0,0.1,0,0.2c0.1,0,0.2,0,0.3,0 c3.8,0,7.6,0,11.5,0c0.2,0,0.4,0,0.5,0c1.2,0.2,1.9,1.1,1.9,2.3c0,1.5,0,2.9,0,4.4c0,0.1,0,0.2,0,0.3c0.1,0,0.2,0,0.3,0 c1.3,0,2.7,0,4,0c1.1,0,2.1,0,3.2,0c0.8,0,1.2,0.3,1.4,0.9c0,0,0,0.1,0,0.1c-0.1,0.2-0.2,0.5-0.3,0.7c-2.5,3.7-4.9,7.5-7.4,11.2 c-0.2,0.3-0.5,0.5-0.7,0.8c-0.4,0.3-0.9,0.6-1.5,0.7c-0.4,0.1-0.8,0.1-1.2,0.2c-7.9,0-15.7,0-23.6,0c-0.1,0-0.2,0-0.3,0 c-0.3-0.1-0.5-0.1-0.8-0.2C3.4,32.5,3,31.7,3,30.8c0-3.7,0-7.4,0-11.1c0-3.5,0-7.1,0-10.6C3,8,3.6,7.2,4.6,6.8 C4.7,6.8,4.9,6.8,5,6.7z M37.3,20.6c-0.1,0-0.2,0-0.3,0c-2.6,0-5.3,0-7.9,0c-4.7,0-9.4,0-14,0c-0.6,0-1.1,0.2-1.6,0.5 c-0.1,0.1-0.3,0.2-0.4,0.4c-2.2,3.3-4.3,6.5-6.5,9.8c0,0-0.1,0.1-0.1,0.2c0.1,0,0.1,0,0.2,0c7.4,0,14.7,0,22.1,0 c0.2,0,0.5,0,0.7-0.1c0.5-0.2,1-0.4,1.3-0.9c2.1-3.2,4.2-6.4,6.4-9.6C37.2,20.7,37.2,20.7,37.3,20.6z M29.3,18.7c0-0.1,0-0.2,0-0.3 c0-1.4,0-2.8,0-4.2c0-0.5-0.1-0.6-0.6-0.6c-4.4,0-8.9,0-13.3,0c-0.1,0-0.2,0-0.3,0c0-0.1,0-0.2,0-0.3c0-1.4,0-2.8,0-4.1 c0-0.4-0.2-0.6-0.6-0.6c-3,0-6.1,0-9.1,0C5,8.6,4.9,8.7,4.9,9.1c0,7,0,14,0,21c0,0.1,0,0.1,0,0.2C5,30.3,5,30.2,5,30.2 c2.2-3.2,4.3-6.5,6.5-9.8c0.3-0.4,0.6-0.7,0.9-0.9c0.8-0.5,1.7-0.8,2.6-0.8c4.6,0,9.3,0,13.9,0C29.1,18.7,29.2,18.7,29.3,18.7z"/></symbol>
	<symbol id="refresh" viewBox="0 0 40 40"><path d="M38,21.1c-.1,2.8-1.2,5.8-2.6,8.2-6.3,10.2-19.6,11.5-28.2,3.4,0,0,0-.1,0-.2l-2.4,2.3c-.6.3-1.1,0-1.2-.7.1-2.4-.2-4.9,0-7.2,0-.7.3-1.1,1-1.1,2.4-.2,5.1.2,7.5,0,.6,0,.9.6.6,1.1l-2.8,2.8c2.2,2.2,5,3.6,8.1,4.1,7.8,1.2,15.3-4.4,16.2-12.3,0-.5,0-1,0-1.5,0-.3.3-.7.6-.7.5,0,2,0,2.5,0,.9.1.8,1.1.8,1.8ZM36.4,13.2c0,.6-.4.8-1,.9-2.4.2-4.9-.1-7.3,0-.7,0-1.1-.6-.7-1.2l2.8-2.8c-.3-.2-.5-.5-.8-.7-5.3-4.7-13.6-4.7-18.9,0-2.8,2.6-4.3,5.9-4.6,9.7,0,.5.1,1.1-.5,1.3-.4.1-2,.1-2.4,0-.6,0-1-.3-1-1,.1-5.9,3.2-11.5,8.1-14.7C17.2.3,27.1,1.3,33,7.4l2.4-2.3c.6-.3,1,0,1.1.7.2,2.4-.2,5,0,7.4Z" /></symbol>
</svg>
